<?xml version="1.0" standalone="no"?><!DOCTYPE svg PUBLIC "-//W3C//DTD SVG 1.1//EN" "http://www.w3.org/Graphics/SVG/1.1/DTD/svg11.dtd"><svg t="1553312546822" class="icon" style="" viewBox="0 0 1024 1024" version="1.1" xmlns="http://www.w3.org/2000/svg" p-id="2933" xmlns:xlink="http://www.w3.org/1999/xlink" width="66" height="66"><defs><style type="text/css"></style></defs><path d="M896 768c-17.6 0-32-14.4-32-32V192c0-17.6-14.4-32-32-32H192c-17.6 0-32 14.4-32 32v544c0 17.6-14.4 32-32 32s-32-14.4-32-32V192c0-52.8 43.2-96 96-96h640c52.8 0 96 43.2 96 96v544c0 17.6-14.4 32-32 32zM896 928H128c-17.6 0-32-14.4-32-32s14.4-32 32-32h768c17.6 0 32 14.4 32 32s-14.4 32-32 32z" p-id="2934" fill="#666666"></path><path d="M736 768H288c-17.6 0-32-14.4-32-32s14.4-32 32-32h448c17.6 0 32 14.4 32 32s-14.4 32-32 32zM512 360c-86.4 0-168-14.4-236.8-41.6-16-6.4-24-25.6-17.6-41.6 6.4-16 25.6-24 41.6-17.6 59.2 24 134.4 38.4 211.2 38.4s152-12.8 211.2-38.4c16-6.4 35.2 1.6 41.6 17.6 6.4 16-1.6 35.2-17.6 41.6-65.6 27.2-147.2 41.6-233.6 41.6z" p-id="2935" fill="#666666"></path><path d="M128 768c-17.6 0-32-14.4-32-32 0-83.2 36.8-139.2 73.6-192 43.2-64 86.4-129.6 86.4-256 0-17.6 14.4-32 32-32s32 14.4 32 32c0 145.6-54.4 227.2-97.6 291.2C187.2 632 160 672 160 736c0 17.6-14.4 32-32 32zM896 768c-17.6 0-32-14.4-32-32 0-64-27.2-104-62.4-156.8-43.2-64-97.6-145.6-97.6-291.2 0-17.6 14.4-32 32-32s32 14.4 32 32c0 126.4 44.8 192 86.4 256 35.2 52.8 73.6 108.8 73.6 192 0 17.6-14.4 32-32 32z" p-id="2936" fill="#666666"></path></svg>