<?xml version="1.0" standalone="no"?><!DOCTYPE svg PUBLIC "-//W3C//DTD SVG 1.1//EN" "http://www.w3.org/Graphics/SVG/1.1/DTD/svg11.dtd"><svg t="1553312627081" class="icon" style="" viewBox="0 0 1024 1024" version="1.1" xmlns="http://www.w3.org/2000/svg" p-id="4514" xmlns:xlink="http://www.w3.org/1999/xlink" width="66" height="66"><defs><style type="text/css"></style></defs><path d="M928 976c-17.6 0-32-14.4-32-32 0-116.8-51.2-224-142.4-297.6-14.4-11.2-16-32-4.8-44.8s32-16 44.8-4.8C899.2 681.6 960 808 960 944c0 17.6-14.4 32-32 32zM512 48c-140.8 0-256 115.2-256 256 0 89.6 46.4 168 116.8 214.4C193.6 577.6 64 745.6 64 944c0 17.6 14.4 32 32 32s32-14.4 32-32c0-211.2 172.8-384 384-384 140.8 0 256-115.2 256-256S652.8 48 512 48z m0 448c-105.6 0-192-86.4-192-192S406.4 112 512 112s192 86.4 192 192-86.4 192-192 192z" p-id="4515" fill="#fd5a6f"></path></svg>